HIERARCHY
ROOT Hips
{
 OFFSET 0.000000 0.000000 0.000000
 CHANNELS 6 Xposition Yposition Zposition Yrotation Xrotation Zrotation
 JOINT Chest
 {
  OFFSET 0.000000 9.585900 0.002600
  CHANNELS 3 Yrotation Xrotation Zrotation
  JOINT Chest2
  {
   OFFSET 0.000000 9.601200 -0.005300
   CHANNELS 3 Yrotation Xrotation Zrotation
   JOINT Chest3
   {
    OFFSET 0.000000 9.561800 0.000000
    CHANNELS 3 Yrotation Xrotation Zrotation
    JOINT Chest4
    {
     OFFSET 0.000000 9.552100 0.000000
     CHANNELS 3 Yrotation Xrotation Zrotation
     JOINT Neck
     {
      OFFSET 0.000000 14.453000 0.000000
      CHANNELS 3 Yrotation Xrotation Zrotation
      JOINT Head
      {
       OFFSET 0.000000 8.936500 -0.011300
       CHANNELS 3 Yrotation Xrotation Zrotation
       End Site
       {
        OFFSET 0.000000 17.073600 -0.006000
       }
      }
     }
     JOINT RightCollar
     {
      OFFSET -2.921100 9.558500 0.000000
      CHANNELS 3 Yrotation Xrotation Zrotation
      JOINT RightShoulder
      {
       OFFSET -13.519700 0.000000 0.000000
       CHANNELS 3 Yrotation Xrotation Zrotation
       JOINT RightElbow
       {
        OFFSET 0.000000 -29.696600 0.000000
        CHANNELS 3 Yrotation Xrotation Zrotation
        JOINT RightWrist
        {
         OFFSET 0.000000 -24.004700 0.000000
         CHANNELS 3 Yrotation Xrotation Zrotation
         End Site
         {
          OFFSET 0.000000 -17.728500 0.000000
         }
        }
       }
      }
     }
     JOINT LeftCollar
     {
      OFFSET 2.921100 9.558500 0.000000
      CHANNELS 3 Yrotation Xrotation Zrotation
      JOINT LeftShoulder
      {
       OFFSET 13.519700 0.000000 0.000000
       CHANNELS 3 Yrotation Xrotation Zrotation
       JOINT LeftElbow
       {
        OFFSET 0.000000 -29.696600 0.000000
        CHANNELS 3 Yrotation Xrotation Zrotation
        JOINT LeftWrist
        {
         OFFSET 0.000000 -24.004700 0.000000
         CHANNELS 3 Yrotation Xrotation Zrotation
         End Site
         {
          OFFSET 0.000000 -17.728500 0.000000
         }
        }
       }
      }
     }
    }
   }
  }
 }
 JOINT RightHip
 {
  OFFSET -7.771700 -0.012900 -0.001300
  CHANNELS 3 Yrotation Xrotation Zrotation
  JOINT RightKnee
  {
   OFFSET 0.000000 -40.869800 0.001200
   CHANNELS 3 Yrotation Xrotation Zrotation
   JOINT RightAnkle
   {
    OFFSET 0.000000 -39.717900 0.002100
    CHANNELS 3 Yrotation Xrotation Zrotation
    JOINT RightToe
    {
     OFFSET 0.000000 -4.965400 11.033500
     CHANNELS 3 Yrotation Xrotation Zrotation
     End Site
     {
      OFFSET 0.000000 -1.423100 5.872300
     }
    }
   }
  }
 }
 JOINT LeftHip
 {
  OFFSET 7.771700 -0.012900 -0.001300
  CHANNELS 3 Yrotation Xrotation Zrotation
  JOINT LeftKnee
  {
   OFFSET 0.000000 -40.869800 0.001200
   CHANNELS 3 Yrotation Xrotation Zrotation
   JOINT LeftAnkle
   {
    OFFSET 0.000000 -39.717900 0.002100
    CHANNELS 3 Yrotation Xrotation Zrotation
    JOINT LeftToe
    {
     OFFSET 0.000000 -4.965400 11.033500
     CHANNELS 3 Yrotation Xrotation Zrotation
     End Site
     {
      OFFSET 0.000000 -1.423100 5.872300
     }
    }
   }
  }
 }
}
MOTION
Frames: 11
Frame Time: 0.008333
0.000000 85.388000 0.000000 0.000000 -5.767877 0.000000 0.000000 11.653817 0.000000 0.000000 -5.885947 0.000000 0.000000 -0.000000 0.000000 0.000000 -0.000000 0.000000 0.000000 12.528835 0.000000 0.000000 0.711642 0.000000 0.000000 -0.000000 0.000000 0.000000 0.000000 -90.000000 0.000000 -2.309062 0.000000 0.000000 2.309062 0.000000 0.000000 -0.000000 0.000000 0.000000 -0.000000 90.000000 0.000000 -2.309062 0.000000 0.000000 2.309062 0.000000 0.000000 8.520406 0.000000 0.000000 1.905762 0.000000 -0.000000 -4.658285 0.000000 0.000000 -0.000000 0.000000 0.000000 8.520406 0.000000 0.000000 1.905762 0.000000 -0.000000 -4.658285 0.000000 0.000000 -0.000000 0.000000
-276.810333 60.792007 -81.866018 158.515148 -31.283421 1.087400 7.397901 20.964322 2.851016 0.917390 2.928664 0.283839 1.498501 4.752643 0.485179 6.003455 17.792430 2.545231 6.388883 17.396912 -1.500428 7.255529 -7.176128 -3.100560 9.582627 4.423520 -3.581952 16.892834 -32.957445 -20.072082 -59.132799 -41.768398 45.813527 -9.400301 -11.676658 -33.138172 -16.163033 1.095638 -5.938766 -6.643635 -30.528143 7.854549 47.638678 -63.286549 -66.911235 -2.482971 -5.447428 -3.039225 1.894437 -37.734295 4.292128 -23.792261 65.021680 -19.153545 0.668094 0.073407 -2.300647 -0.066136 -0.426706 0.150438 10.880151 -37.956521 2.677118 25.866327 57.979261 25.862513 -14.002407 -13.257956 1.987346 -0.124768 0.174143 0.146892
-276.779866 60.790964 -81.921149 158.600333 -31.153105 1.148988 7.372289 21.080038 2.778995 0.909703 2.944091 0.273686 1.485445 4.776752 0.468602 5.934922 17.850322 2.472302 6.306171 17.393926 -1.577793 7.181782 -7.182426 -3.164169 9.575255 4.376604 -3.773735 17.259191 -33.470704 -20.024732 -58.802122 -43.975397 45.904700 -9.115077 -11.877589 -31.974775 -16.106556 0.713429 -5.886354 -6.397716 -31.320620 7.787396 48.925485 -64.373533 -68.595611 -2.417174 -5.503587 -3.308470 1.407777 -37.893934 4.678250 -23.978142 65.093113 -19.921142 0.584894 0.053268 -2.304636 0.018744 -0.526047 0.243706 10.997732 -38.079248 2.553488 25.916752 58.058101 25.849945 -14.006471 -13.277909 2.033748 -0.118147 0.105979 0.137224
-276.752155 60.787537 -81.988793 158.764764 -30.997230 1.192837 7.281362 21.135208 2.654359 0.900446 2.952665 0.262599 1.469912 4.790350 0.450338 5.863350 17.890836 2.394683 6.189801 17.448728 -1.633616 7.065137 -7.127821 -3.195987 9.557205 4.376990 -3.909883 17.749830 -33.781559 -20.082349 -58.669254 -46.106119 46.141304 -8.899407 -12.016631 -30.989203 -16.050776 0.377594 -5.789947 -6.337362 -31.910196 7.874430 50.659544 -65.361312 -70.447113 -2.358025 -5.549521 -3.506562 0.829500 -38.072167 5.056120 -24.107087 65.187027 -20.666516 0.487160 -0.044497 -2.292148 0.106333 -0.566751 0.350730 11.051258 -38.215957 2.369912 26.008470 58.119787 25.885927 -13.997915 -13.297785 2.054787 -0.196110 0.050518 0.121509
-276.730199 60.781446 -82.069108 158.961961 -30.830417 1.235706 7.170328 21.150204 2.494183 0.889124 2.952674 0.251097 1.451282 4.790849 0.431241 5.787939 17.909496 2.315621 6.042378 17.553413 -1.670518 6.909415 -7.020723 -3.199567 9.535961 4.432068 -4.009167 18.362848 -33.899747 -20.286634 -58.868105 -48.060045 46.622996 -8.696947 -12.055674 -30.204033 -15.994294 0.091171 -5.657783 -6.446674 -32.315373 8.115697 52.775925 -66.191532 -72.460215 -2.305635 -5.600486 -3.613332 0.231079 -38.257423 5.408266 -24.179517 65.305432 -21.360757 0.376104 -0.164596 -2.277494 0.195526 -0.604473 0.400713 11.084286 -38.357974 2.148569 26.096435 58.184099 25.927084 -13.974976 -13.319263 2.058398 -0.305128 0.006491 0.110328
-276.711012 60.771774 -82.159256 159.189106 -30.663395 1.236672 7.058434 21.137331 2.354546 0.876123 2.946639 0.239701 1.430092 4.782131 0.412376 5.708307 17.912839 2.238009 5.866353 17.689809 -1.693612 6.718752 -6.880766 -3.181059 9.504967 4.519373 -4.090754 19.027147 -33.875821 -20.615221 -59.367063 -49.791706 47.353727 -8.510201 -11.942680 -29.532945 -15.934116 -0.158911 -5.496199 -6.680235 -32.569951 8.481988 55.180049 -66.836802 -74.604529 -2.251557 -5.641133 -3.635181 -0.382791 -38.437229 5.765043 -24.214118 65.439648 -21.993092 0.245649 -0.301790 -2.207397 0.286559 -0.634955 0.390751 11.065807 -38.505155 1.936171 26.168343 58.261401 25.962582 -13.864874 -13.375449 2.115087 -0.374906 0.000633 0.056095
-276.703257 60.760040 -82.265107 159.416513 -30.530796 1.259679 6.954766 21.138999 2.198324 0.862262 2.939191 0.228996 1.407563 4.771181 0.394715 5.625097 17.912558 2.164470 5.663980 17.835620 -1.705653 6.496558 -6.732158 -3.144204 9.449383 4.613979 -4.166695 19.622617 -33.789327 -20.994132 -60.016587 -51.306663 48.270814 -8.373635 -11.708399 -28.902878 -15.871888 -0.385589 -5.311242 -6.968657 -32.717917 8.924980 57.726612 -67.301211 -76.813955 -2.187246 -5.656898 -3.592534 -0.902779 -38.577960 6.035255 -24.254760 65.584065 -22.569851 0.067325 -0.415528 -2.227925 0.407249 -0.696882 0.487661 11.063274 -38.619520 1.676832 26.206877 58.360237 25.987118 -13.680527 -13.423198 2.181302 -0.496807 -0.013611 -0.014339
-276.705776 60.740846 -82.377314 159.693037 -30.387088 1.249741 6.825063 21.115292 2.055973 0.848328 2.932990 0.219236 1.384996 4.762129 0.378538 5.540823 17.915090 2.095968 5.442560 17.967186 -1.707939 6.251494 -6.600533 -3.092276 9.357728 4.690295 -4.242850 20.066604 -33.702839 -21.351340 -60.662632 -52.611151 49.310768 -8.278821 -11.440600 -28.322238 -15.806840 -0.599195 -5.105843 -7.234351 -32.801129 9.384025 60.236004 -67.620462 -78.996903 -2.106684 -5.654053 -3.491193 -1.350404 -38.734332 6.226475 -24.338178 65.742883 -23.094900 -0.079283 -0.612228 -2.224491 0.488733 -0.681093 0.562365 11.021940 -38.757792 1.401451 26.220475 58.485401 26.012913 -13.543187 -13.480432 2.235339 -0.646489 -0.019275 -0.075038
-276.718484 60.714433 -82.496947 159.971346 -30.244183 1.235466 6.701436 21.096425 1.924787 0.835780 2.929267 0.210420 1.364645 4.756814 0.363868 5.462838 17.922231 2.033221 5.208822 18.062795 -1.702210 5.991341 -6.509491 -3.028814 9.225416 4.724063 -4.326623 20.362813 -33.628687 -21.654310 -61.251091 -53.730874 50.440389 -8.158198 -11.180815 -27.842439 -15.740590 -0.816525 -4.883942 -7.425714 -32.846237 9.813322 62.589062 -67.847664 -81.085577 -2.007652 -5.638416 -3.341717 -1.665370 -38.904351 6.320413 -24.480108 65.923255 -23.569714 -0.238596 -0.828489 -2.192580 0.571784 -0.650723 0.609111 10.972826 -38.907695 1.118652 26.234801 58.637129 26.055028 -13.439985 -13.553449 2.300148 -0.802837 -0.015163 -0.148875
-276.737216 60.680617 -82.622542 160.228692 -30.102399 1.209217 6.600026 21.088161 1.822096 0.825892 2.928788 0.202465 1.348418 4.756315 0.350702 5.397864 17.934869 1.976672 4.969445 18.111417 -1.689789 5.723633 -6.470765 -2.956884 9.056117 4.709070 -4.422781 20.566496 -33.539746 -21.905496 -61.805722 -54.747787 51.619732 -7.987169 -10.930768 -27.477931 -15.671831 -1.051371 -4.653451 -7.526776 -32.860274 10.197502 64.749665 -68.020704 -83.052330 -1.903820 -5.616131 -3.160432 -1.854404 -39.092995 6.347135 -24.674492 66.131966 -23.993101 -0.399579 -1.048480 -2.157120 0.642142 -0.621037 0.648629 10.905786 -39.070998 0.868196 26.275281 58.814081 26.119117 -13.339889 -13.651957 2.368905 -0.924690 0.004523 -0.218870
-276.759243 60.640006 -82.753558 160.448236 -29.961362 1.173451 6.529962 21.103870 1.752525 0.819052 2.928397 0.194798 1.337121 4.755896 0.338090 5.351210 17.944356 1.923999 4.729839 18.114441 -1.670072 5.454276 -6.482362 -2.877111 8.850807 4.651965 -4.525017 20.717999 -33.407223 -22.116081 -62.341338 -55.736499 52.794071 -7.803346 -10.670198 -27.190912 -15.599933 -1.303838 -4.423490 -7.529974 -32.840802 10.539121 66.717768 -68.151984 -84.903353 -1.816802 -5.597037 -2.960990 -1.928594 -39.296943 6.324931 -24.912929 66.367187 -24.370451 -0.548727 -1.278997 -2.113955 0.691385 -0.585762 0.675650 10.819542 -39.248914 0.670231 26.359242 59.015740 26.208957 -13.227365 -13.764889 2.433826 -0.982374 0.026779 -0.268946
